<?xml version="1.0" encoding="UTF-8" standalone="no"?>
<!DOCTYPE svg PUBLIC "-//W3C//DTD SVG 1.1//EN"
 "http://www.w3.org/Graphics/SVG/1.1/DTD/svg11.dtd">
<!-- Generated by graphviz version 2.28.0 (20110507.0327)
 -->
<!-- Title: history Pages: 1 -->
<svg width="1215pt" height="1304pt"
 viewBox="0.00 0.00 1215.00 1304.00" xmlns="http://www.w3.org/2000/svg" xmlns:xlink="http://www.w3.org/1999/xlink">
<g id="graph1" class="graph" transform="scale(1 1) rotate(0) translate(4 1300)">
<title>history</title>
<polygon fill="white" stroke="white" points="-4,5 -4,-1300 1212,-1300 1212,5 -4,5"/>
<!-- 1948 -->
<g id="node2" class="node"><title>1948</title>
<text text-anchor="middle" x="27" y="-1274.2" font-family="Times New Roman,serif" font-size="16.00">1948</text>
</g>
<!-- 1957 -->
<g id="node4" class="node"><title>1957</title>
<text text-anchor="middle" x="27" y="-1184.2" font-family="Times New Roman,serif" font-size="16.00">1957</text>
</g>
<!-- 1948&#45;&gt;1957 -->
<g id="edge3" class="edge"><title>1948&#45;&gt;1957</title>
<path fill="none" stroke="black" d="M27,-1259.61C27,-1247.24 27,-1230.37 27,-1216.22"/>
<polygon fill="black" stroke="black" points="30.5001,-1216.05 27,-1206.05 23.5001,-1216.05 30.5001,-1216.05"/>
</g>
<!-- 1958 -->
<g id="node5" class="node"><title>1958</title>
<text text-anchor="middle" x="27" y="-1094.2" font-family="Times New Roman,serif" font-size="16.00">1958</text>
</g>
<!-- 1957&#45;&gt;1958 -->
<g id="edge4" class="edge"><title>1957&#45;&gt;1958</title>
<path fill="none" stroke="black" d="M27,-1169.61C27,-1157.24 27,-1140.37 27,-1126.22"/>
<polygon fill="black" stroke="black" points="30.5001,-1126.05 27,-1116.05 23.5001,-1126.05 30.5001,-1126.05"/>
</g>
<!-- 1970 -->
<g id="node6" class="node"><title>1970</title>
<text text-anchor="middle" x="27" y="-1004.2" font-family="Times New Roman,serif" font-size="16.00">1970</text>
</g>
<!-- 1958&#45;&gt;1970 -->
<g id="edge5" class="edge"><title>1958&#45;&gt;1970</title>
<path fill="none" stroke="black" d="M27,-1079.61C27,-1067.24 27,-1050.37 27,-1036.22"/>
<polygon fill="black" stroke="black" points="30.5001,-1036.05 27,-1026.05 23.5001,-1036.05 30.5001,-1036.05"/>
</g>
<!-- 1974 -->
<g id="node7" class="node"><title>1974</title>
<text text-anchor="middle" x="27" y="-914.2" font-family="Times New Roman,serif" font-size="16.00">1974</text>
</g>
<!-- 1970&#45;&gt;1974 -->
<g id="edge6" class="edge"><title>1970&#45;&gt;1974</title>
<path fill="none" stroke="black" d="M27,-989.614C27,-977.24 27,-960.369 27,-946.22"/>
<polygon fill="black" stroke="black" points="30.5001,-946.05 27,-936.05 23.5001,-946.05 30.5001,-946.05"/>
</g>
<!-- 1988 -->
<g id="node8" class="node"><title>1988</title>
<text text-anchor="middle" x="27" y="-824.2" font-family="Times New Roman,serif" font-size="16.00">1988</text>
</g>
<!-- 1974&#45;&gt;1988 -->
<g id="edge7" class="edge"><title>1974&#45;&gt;1988</title>
<path fill="none" stroke="black" d="M27,-899.614C27,-887.24 27,-870.369 27,-856.22"/>
<polygon fill="black" stroke="black" points="30.5001,-856.05 27,-846.05 23.5001,-856.05 30.5001,-856.05"/>
</g>
<!-- 1990 -->
<g id="node9" class="node"><title>1990</title>
<text text-anchor="middle" x="27" y="-734.2" font-family="Times New Roman,serif" font-size="16.00">1990</text>
</g>
<!-- 1988&#45;&gt;1990 -->
<g id="edge8" class="edge"><title>1988&#45;&gt;1990</title>
<path fill="none" stroke="black" d="M27,-809.614C27,-797.24 27,-780.369 27,-766.22"/>
<polygon fill="black" stroke="black" points="30.5001,-766.05 27,-756.05 23.5001,-766.05 30.5001,-766.05"/>
</g>
<!-- 1994 -->
<g id="node10" class="node"><title>1994</title>
<text text-anchor="middle" x="27" y="-644.2" font-family="Times New Roman,serif" font-size="16.00">1994</text>
</g>
<!-- 1990&#45;&gt;1994 -->
<g id="edge9" class="edge"><title>1990&#45;&gt;1994</title>
<path fill="none" stroke="black" d="M27,-719.614C27,-707.24 27,-690.369 27,-676.22"/>
<polygon fill="black" stroke="black" points="30.5001,-676.05 27,-666.05 23.5001,-676.05 30.5001,-676.05"/>
</g>
<!-- 1995 -->
<g id="node11" class="node"><title>1995</title>
<text text-anchor="middle" x="27" y="-554.2" font-family="Times New Roman,serif" font-size="16.00">1995</text>
</g>
<!-- 1994&#45;&gt;1995 -->
<g id="edge10" class="edge"><title>1994&#45;&gt;1995</title>
<path fill="none" stroke="black" d="M27,-629.614C27,-617.24 27,-600.369 27,-586.22"/>
<polygon fill="black" stroke="black" points="30.5001,-586.05 27,-576.05 23.5001,-586.05 30.5001,-586.05"/>
</g>
<!-- 1996 -->
<g id="node12" class="node"><title>1996</title>
<text text-anchor="middle" x="27" y="-464.2" font-family="Times New Roman,serif" font-size="16.00">1996</text>
</g>
<!-- 1995&#45;&gt;1996 -->
<g id="edge11" class="edge"><title>1995&#45;&gt;1996</title>
<path fill="none" stroke="black" d="M27,-539.614C27,-527.24 27,-510.369 27,-496.22"/>
<polygon fill="black" stroke="black" points="30.5001,-496.05 27,-486.05 23.5001,-496.05 30.5001,-496.05"/>
</g>
<!-- 1997 -->
<g id="node13" class="node"><title>1997</title>
<text text-anchor="middle" x="27" y="-374.2" font-family="Times New Roman,serif" font-size="16.00">1997</text>
</g>
<!-- 1996&#45;&gt;1997 -->
<g id="edge12" class="edge"><title>1996&#45;&gt;1997</title>
<path fill="none" stroke="black" d="M27,-449.614C27,-437.24 27,-420.369 27,-406.22"/>
<polygon fill="black" stroke="black" points="30.5001,-406.05 27,-396.05 23.5001,-406.05 30.5001,-406.05"/>
</g>
<!-- 2001 -->
<g id="node14" class="node"><title>2001</title>
<text text-anchor="middle" x="27" y="-284.2" font-family="Times New Roman,serif" font-size="16.00">2001</text>
</g>
<!-- 1997&#45;&gt;2001 -->
<g id="edge13" class="edge"><title>1997&#45;&gt;2001</title>
<path fill="none" stroke="black" d="M27,-359.614C27,-347.24 27,-330.369 27,-316.22"/>
<polygon fill="black" stroke="black" points="30.5001,-316.05 27,-306.05 23.5001,-316.05 30.5001,-316.05"/>
</g>
<!-- 2003 -->
<g id="node15" class="node"><title>2003</title>
<text text-anchor="middle" x="27" y="-194.2" font-family="Times New Roman,serif" font-size="16.00">2003</text>
</g>
<!-- 2001&#45;&gt;2003 -->
<g id="edge14" class="edge"><title>2001&#45;&gt;2003</title>
<path fill="none" stroke="black" d="M27,-269.614C27,-257.24 27,-240.369 27,-226.22"/>
<polygon fill="black" stroke="black" points="30.5001,-226.05 27,-216.05 23.5001,-226.05 30.5001,-226.05"/>
</g>
<!-- 2004 -->
<g id="node16" class="node"><title>2004</title>
<text text-anchor="middle" x="27" y="-104.2" font-family="Times New Roman,serif" font-size="16.00">2004</text>
</g>
<!-- 2003&#45;&gt;2004 -->
<g id="edge15" class="edge"><title>2003&#45;&gt;2004</title>
<path fill="none" stroke="black" d="M27,-179.614C27,-167.24 27,-150.369 27,-136.22"/>
<polygon fill="black" stroke="black" points="30.5001,-136.05 27,-126.05 23.5001,-136.05 30.5001,-136.05"/>
</g>
<!-- 2005 -->
<g id="node17" class="node"><title>2005</title>
<text text-anchor="middle" x="27" y="-14.2" font-family="Times New Roman,serif" font-size="16.00">2005</text>
</g>
<!-- 2004&#45;&gt;2005 -->
<g id="edge16" class="edge"><title>2004&#45;&gt;2005</title>
<path fill="none" stroke="black" d="M27,-89.614C27,-77.2403 27,-60.3686 27,-46.2198"/>
<polygon fill="black" stroke="black" points="30.5001,-46.0504 27,-36.0504 23.5001,-46.0504 30.5001,-46.0504"/>
</g>
<!-- TPS -->
<g id="node19" class="node"><title>TPS</title>
<text text-anchor="middle" x="238" y="-1274.3" font-family="Times New Roman,serif" font-size="14.00">Toyota Production System</text>
</g>
<!-- Lean -->
<g id="node27" class="node"><title>Lean</title>
<text text-anchor="middle" x="146" y="-734.3" font-family="Times New Roman,serif" font-size="14.00">Lean Manufacturing</text>
</g>
<!-- TPS&#45;&gt;Lean -->
<g id="edge31" class="edge"><title>TPS&#45;&gt;Lean</title>
<path fill="none" stroke="black" d="M226.974,-1259.58C208.429,-1228.57 173,-1161.18 173,-1099 173,-1099 173,-1099 173,-917 173,-862.897 160.656,-800.58 152.661,-765.891"/>
<polygon fill="black" stroke="black" points="156.042,-764.981 150.338,-756.053 149.23,-766.589 156.042,-764.981"/>
</g>
<!-- leansd -->
<g id="node40" class="node"><title>leansd</title>
<text text-anchor="middle" x="160" y="-194.3" font-family="Times New Roman,serif" font-size="14.00">Lean Software Development</text>
</g>
<!-- TPS&#45;&gt;leansd -->
<g id="edge35" class="edge"><title>TPS&#45;&gt;leansd</title>
<path fill="none" stroke="black" d="M238,-1259.82C238,-1228.06 238,-1158.02 238,-1099 238,-1099 238,-1099 238,-377 238,-318.463 202.174,-257.513 179.083,-224.307"/>
<polygon fill="black" stroke="black" points="181.883,-222.207 173.232,-216.092 176.182,-226.268 181.883,-222.207"/>
</g>
<!-- kanban -->
<g id="node42" class="node"><title>kanban</title>
<text text-anchor="middle" x="304" y="-104.3" font-family="Times New Roman,serif" font-size="14.00">Kanban</text>
</g>
<!-- TPS&#45;&gt;kanban -->
<g id="edge37" class="edge"><title>TPS&#45;&gt;kanban</title>
<path fill="none" stroke="black" d="M244.275,-1259.58C255.068,-1228.01 276,-1159.04 276,-1099 276,-1099 276,-1099 276,-287 276,-232.851 288.801,-170.551 297.092,-135.877"/>
<polygon fill="black" stroke="black" points="300.521,-136.588 299.501,-126.043 293.722,-134.923 300.521,-136.588"/>
</g>
<!-- Inc -->
<g id="node21" class="node"><title>Inc</title>
<text text-anchor="middle" x="408" y="-1184.3" font-family="Times New Roman,serif" font-size="14.00">Incremental software development</text>
</g>
<!-- evo -->
<g id="node23" class="node"><title>evo</title>
<text text-anchor="middle" x="1023" y="-1004.3" font-family="Times New Roman,serif" font-size="14.00">Evolutionary Project Management</text>
</g>
<!-- comp -->
<g id="node45" class="node"><title>comp</title>
<text text-anchor="middle" x="1023" y="-14.3" font-family="Times New Roman,serif" font-size="14.00">Competitive Engineering</text>
</g>
<!-- evo&#45;&gt;comp -->
<g id="edge61" class="edge"><title>evo&#45;&gt;comp</title>
<path fill="none" stroke="black" d="M1023,-989.817C1023,-958.058 1023,-888.024 1023,-829 1023,-829 1023,-829 1023,-197 1023,-143.74 1023,-81.5154 1023,-46.5367"/>
<polygon fill="black" stroke="black" points="1026.5,-46.1831 1023,-36.1832 1019.5,-46.1832 1026.5,-46.1831"/>
</g>
<!-- adapt -->
<g id="node25" class="node"><title>adapt</title>
<text text-anchor="middle" x="626" y="-914.3" font-family="Times New Roman,serif" font-size="14.00">Adaptive Software development</text>
</g>
<!-- fdd -->
<g id="node36" class="node"><title>fdd</title>
<text text-anchor="middle" x="907" y="-374.3" font-family="Times New Roman,serif" font-size="14.00">Feature Driven Development</text>
</g>
<!-- adapt&#45;&gt;fdd -->
<g id="edge43" class="edge"><title>adapt&#45;&gt;fdd</title>
<path fill="none" stroke="black" d="M724.402,-900.377C811.203,-879.415 924,-833.914 924,-739 924,-739 924,-739 924,-557 924,-503.497 916.295,-441.357 911.259,-406.459"/>
<polygon fill="black" stroke="black" points="914.657,-405.511 909.731,-396.131 907.733,-406.536 914.657,-405.511"/>
</g>
<!-- am -->
<g id="node38" class="node"><title>am</title>
<text text-anchor="middle" x="626" y="-284.3" font-family="Times New Roman,serif" font-size="14.00">Agile Manifesto</text>
</g>
<!-- adapt&#45;&gt;am -->
<g id="edge53" class="edge"><title>adapt&#45;&gt;am</title>
<path fill="none" stroke="black" d="M626,-899.817C626,-868.058 626,-798.024 626,-739 626,-739 626,-739 626,-467 626,-413.74 626,-351.515 626,-316.537"/>
<polygon fill="black" stroke="black" points="629.5,-316.183 626,-306.183 622.5,-316.183 629.5,-316.183"/>
</g>
<!-- adapt&#45;&gt;leansd -->
<g id="edge39" class="edge"><title>adapt&#45;&gt;leansd</title>
<path fill="none" stroke="black" d="M527.709,-902.865C436.256,-883.505 314,-838.935 314,-739 314,-739 314,-739 314,-377 314,-306.94 244.926,-250.883 199.299,-221.497"/>
<polygon fill="black" stroke="black" points="201.123,-218.51 190.794,-216.151 197.398,-224.436 201.123,-218.51"/>
</g>
<!-- Lean&#45;&gt;leansd -->
<g id="edge32" class="edge"><title>Lean&#45;&gt;leansd</title>
<path fill="none" stroke="black" d="M147.125,-719.826C149.103,-688.081 153,-618.07 153,-559 153,-559 153,-559 153,-377 153,-323.699 156.173,-261.489 158.246,-226.523"/>
<polygon fill="black" stroke="black" points="161.762,-226.368 158.875,-216.174 154.775,-225.944 161.762,-226.368"/>
</g>
<!-- dsdm -->
<g id="node29" class="node"><title>dsdm</title>
<text text-anchor="middle" x="775" y="-644.3" font-family="Times New Roman,serif" font-size="14.00">Dynamic Systems Development Method</text>
</g>
<!-- dsdm&#45;&gt;am -->
<g id="edge47" class="edge"><title>dsdm&#45;&gt;am</title>
<path fill="none" stroke="black" d="M767.813,-629.733C743.767,-571.957 666.009,-385.128 637.025,-315.489"/>
<polygon fill="black" stroke="black" points="640.188,-313.981 633.114,-306.094 633.726,-316.671 640.188,-313.981"/>
</g>
<!-- scrum -->
<g id="node31" class="node"><title>scrum</title>
<text text-anchor="middle" x="390" y="-554.3" font-family="Times New Roman,serif" font-size="14.00">Scrum</text>
</g>
<!-- scrum&#45;&gt;am -->
<g id="edge45" class="edge"><title>scrum&#45;&gt;am</title>
<path fill="none" stroke="black" d="M417.086,-553.649C456.055,-547.389 527.672,-530.273 568,-486 590.878,-460.883 611.838,-363.978 621.056,-316.095"/>
<polygon fill="black" stroke="black" points="624.522,-316.6 622.941,-306.124 617.644,-315.299 624.522,-316.6"/>
</g>
<!-- scrum&#45;&gt;kanban -->
<g id="edge41" class="edge"><title>scrum&#45;&gt;kanban</title>
<path fill="none" stroke="black" d="M383.725,-539.579C372.932,-508.007 352,-439.038 352,-379 352,-379 352,-379 352,-287 352,-231.651 330.097,-169.856 315.883,-135.58"/>
<polygon fill="black" stroke="black" points="319.058,-134.102 311.926,-126.267 312.615,-136.839 319.058,-134.102"/>
</g>
<!-- scrumban -->
<g id="node46" class="node"><title>scrumban</title>
<text text-anchor="middle" x="333" y="-14.3" font-family="Times New Roman,serif" font-size="14.00">Scrum&#45;ban</text>
</g>
<!-- scrum&#45;&gt;scrumban -->
<g id="edge57" class="edge"><title>scrum&#45;&gt;scrumban</title>
<path fill="none" stroke="black" d="M390,-539.817C390,-508.058 390,-438.024 390,-379 390,-379 390,-379 390,-197 390,-140.887 363.99,-79.3602 347.11,-45.3388"/>
<polygon fill="black" stroke="black" points="350.065,-43.4269 342.412,-36.0995 343.825,-46.5997 350.065,-43.4269"/>
</g>
<!-- rup -->
<g id="node33" class="node"><title>rup</title>
<text text-anchor="middle" x="1129" y="-464.3" font-family="Times New Roman,serif" font-size="14.00">Rational Unified Process</text>
</g>
<!-- xp -->
<g id="node34" class="node"><title>xp</title>
<text text-anchor="middle" x="489" y="-464.3" font-family="Times New Roman,serif" font-size="14.00">Extreme Programming</text>
</g>
<!-- xp&#45;&gt;am -->
<g id="edge49" class="edge"><title>xp&#45;&gt;am</title>
<path fill="none" stroke="black" d="M502.136,-449.933C526.379,-418.435 578.255,-351.034 606.573,-314.24"/>
<polygon fill="black" stroke="black" points="609.578,-316.075 612.904,-306.016 604.031,-311.806 609.578,-316.075"/>
</g>
<!-- fdd&#45;&gt;am -->
<g id="edge55" class="edge"><title>fdd&#45;&gt;am</title>
<path fill="none" stroke="black" d="M852.487,-359.928C805.355,-345.168 737.245,-323.838 688.037,-308.428"/>
<polygon fill="black" stroke="black" points="689.048,-305.077 678.459,-305.429 686.956,-311.757 689.048,-305.077"/>
</g>
<!-- leansd&#45;&gt;kanban -->
<g id="edge33" class="edge"><title>leansd&#45;&gt;kanban</title>
<path fill="none" stroke="black" d="M188.106,-179.824C210.704,-166.014 242.631,-146.503 267.254,-131.456"/>
<polygon fill="black" stroke="black" points="269.257,-134.334 275.964,-126.133 265.606,-128.361 269.257,-134.334"/>
</g>
<!-- kanban&#45;&gt;scrumban -->
<g id="edge59" class="edge"><title>kanban&#45;&gt;scrumban</title>
<path fill="none" stroke="black" d="M309.729,-89.614C313.847,-77.119 319.476,-60.0374 324.167,-45.8044"/>
<polygon fill="black" stroke="black" points="327.575,-46.6435 327.381,-36.0504 320.927,-44.4525 327.575,-46.6435"/>
</g>
<!-- cc -->
<g id="node43" class="node"><title>cc</title>
<text text-anchor="middle" x="626" y="-104.3" font-family="Times New Roman,serif" font-size="14.00">Crystal Clear</text>
</g>
<!-- cc&#45;&gt;am -->
<g id="edge51" class="edge"><title>cc&#45;&gt;am</title>
<path fill="none" stroke="black" d="M626,-126.016C626,-156.943 626,-222.607 626,-259.809"/>
<polygon fill="black" stroke="black" points="622.5,-259.933 626,-269.933 629.5,-259.933 622.5,-259.933"/>
</g>
</g>
</svg>
