<?xml version="1.0" encoding="UTF-8" standalone="no"?>
<svg
   xmlns:dc="http://purl.org/dc/elements/1.1/"
   xmlns:cc="http://creativecommons.org/ns#"
   xmlns:rdf="http://www.w3.org/1999/02/22-rdf-syntax-ns#"
   xmlns:svg="http://www.w3.org/2000/svg"
   xmlns="http://www.w3.org/2000/svg"
   xmlns:sodipodi="http://sodipodi.sourceforge.net/DTD/sodipodi-0.dtd"
   xmlns:inkscape="http://www.inkscape.org/namespaces/inkscape"
   height="245.7016"
   width="245.70917"
   viewBox="82.992 45.607 719.7476 792.4822"
   id="svg2"
   version="1.1"
   inkscape:version="0.48.4 r9939"
   sodipodi:docname="D-310-3-G.svg">
  <metadata
     id="metadata2508">
    <rdf:RDF>
      <cc:Work
         rdf:about="">
        <dc:format>image/svg+xml</dc:format>
        <dc:type
           rdf:resource="http://purl.org/dc/dcmitype/StillImage" />
        <dc:title></dc:title>
      </cc:Work>
    </rdf:RDF>
  </metadata>
  <sodipodi:namedview
     pagecolor="#ffffff"
     bordercolor="#666666"
     borderopacity="1"
     objecttolerance="10"
     gridtolerance="10"
     guidetolerance="10"
     inkscape:pageopacity="0"
     inkscape:pageshadow="2"
     inkscape:window-width="1280"
     inkscape:window-height="1004"
     id="namedview2506"
     showgrid="false"
     inkscape:zoom="1.8049318"
     inkscape:cx="134.57267"
     inkscape:cy="112.19836"
     inkscape:window-x="-8"
     inkscape:window-y="-8"
     inkscape:window-maximized="1"
     inkscape:current-layer="svg2"
     showguides="true"
     inkscape:guide-bbox="true"
     fit-margin-top="0.2"
     fit-margin-left="0.2"
     fit-margin-right="0.2"
     fit-margin-bottom="0.2" />
  <defs
     id="defs4">
    <linearGradient
       id="linearGradient6324">
      <stop
         style="stop-color:#ec8028;stop-opacity:1;"
         offset="0"
         id="stop6326" />
      <stop
         style="stop-color:#ec8028;stop-opacity:0;"
         offset="1"
         id="stop6328" />
    </linearGradient>
    <clipPath
       id="SVG_CP_1">
      <path
         inkscape:connector-curvature="0"
         d="M 598.41107,0 0,0 l 0,392.15871 598.41107,0 0,-392.15871 z"
         id="path21406" />
    </clipPath>
    <clipPath
       id="clipPath6506">
      <path
         inkscape:connector-curvature="0"
         d="M 598.41107,0 0,0 l 0,392.15871 598.41107,0 0,-392.15871 z"
         id="path6508" />
    </clipPath>
    <clipPath
       id="clipPath6510">
      <path
         inkscape:connector-curvature="0"
         d="M 598.41107,0 0,0 l 0,392.15871 598.41107,0 0,-392.15871 z"
         id="path6512" />
    </clipPath>
    <clipPath
       id="clipPath6514">
      <path
         inkscape:connector-curvature="0"
         d="M 598.41107,0 0,0 l 0,392.15871 598.41107,0 0,-392.15871 z"
         id="path6516" />
    </clipPath>
    <clipPath
       id="clipPath6518">
      <path
         inkscape:connector-curvature="0"
         d="M 598.41107,0 0,0 l 0,392.15871 598.41107,0 0,-392.15871 z"
         id="path6520-6" />
    </clipPath>
    <clipPath
       id="clipPath6522">
      <path
         inkscape:connector-curvature="0"
         d="M 598.41107,0 0,0 l 0,392.15871 598.41107,0 0,-392.15871 z"
         id="path6524-5" />
    </clipPath>
    <clipPath
       id="clipPath6526">
      <path
         inkscape:connector-curvature="0"
         d="M 598.41107,0 0,0 l 0,392.15871 598.41107,0 0,-392.15871 z"
         id="path6528-2" />
    </clipPath>
    <clipPath
       id="SVG_CP_1-9">
      <path
         inkscape:connector-curvature="0"
         d="M 598.41107,0 0,0 l 0,392.15871 598.41107,0 0,-392.15871 z"
         id="path21406-3" />
    </clipPath>
    <clipPath
       id="SVG_CP_1-0">
      <path
         inkscape:connector-curvature="0"
         d="M 598.41107,0 0,0 l 0,392.15871 598.41107,0 0,-392.15871 z"
         id="path21406-1" />
    </clipPath>
    <clipPath
       id="clipPath6597">
      <path
         inkscape:connector-curvature="0"
         d="M 598.41107,0 0,0 l 0,392.15871 598.41107,0 0,-392.15871 z"
         id="path6599" />
    </clipPath>
    <clipPath
       id="clipPath6601">
      <path
         inkscape:connector-curvature="0"
         d="M 598.41107,0 0,0 l 0,392.15871 598.41107,0 0,-392.15871 z"
         id="path6603" />
    </clipPath>
  </defs>
  <style
     id="style_css_sheet"
     type="text/css"> 
/*
 * Below are Cascading Style Sheet (CSS) definitions in use in this file,
 * which allow easily changing how countries are displayed.
 *
 */

/*
 * Circles around small countries
 *
 * Change opacity to 1 to display all circles.
 *
 */
.circlexx
{
   opacity:1;
   fill:#e0e0e0;
   stroke:#000000;
   stroke-width:0.5;
}

/*
 * Smaller circles around French DOMs and Chinese SARs
 *
 * Change opacity to 1 to display all subnational circles.
 *
 */
.subxx
{
   opacity:1;
   stroke-width:0.3;
}

/*
 * Circles around small, unrecognized countries
 *
 * Change opacity to 1 to display all circles.
 *
 */
.unxx
{
   opacity:0;
   fill:#e0e0e0;
   stroke:#000000;
   stroke-width:0.3;
}

/*
 * Circles around small countries, but with no permanent residents 
 *
 * Change opacity to 1 to display all circles.
 *
 */
.noxx
{
   opacity:0;
   fill:#e0e0e0;
   stroke:#000000;
   stroke-width:0.5;
}

/*
 * land
 */
.landxx
{
   fill: #e0e0e0;
   stroke:#ffffff;
   stroke-width:0.5;
   fill-rule:evenodd;
}

/*
 * Styles for coastlines of islands with no borders
 */
.coastxx
{
   fill: #e0e0e0;
   stroke:#ffffff;
   stroke-width:0.3;
   fill-rule:evenodd;
}

/*
 * Styles for nations with limited recognition
 */
.limitxx
{
   fill: #e0e0e0;
   stroke:#ffffff;
   stroke-width:0;
   fill-rule:evenodd;
}

/*
 * Styles for nations with no permanent population.
 */
.antxx
{
   fill: #e0e0e0;
   stroke:#ffffff;
   stroke-width:0;
   fill-rule:evenodd;
}

/*
 * Ocean
 */
.oceanxx
{
   opacity: 1;
   color: #000000;
   fill:#ffffff;
   stroke:#000;
   stroke-width:0.5;
   stroke-miterlimit:1;
}

/*
 * Additional style rules
 *
 * The following are examples of colouring countries.  You can substitute these with your own styles to colour the countries on the map.
 *
 * Color a few countries:
 *
 * .gb, .au, .nc
 * {
 *    fill:       #ff0000;
 * }
 *
 * Color a few small country circles (and the countries):
 *
 * .ms, .ky
 * {
 *    opacity:    1;
 *    fill:       #ff0000;
 * }
 *
 */

/* Same-sex marriage */
.ar, .be, .ca, .dk, .es, .is, .nl, .no, .pt, .se, .za
{ fill: #002255; }

/* Civil unions etc. */
.ad, .at, .au, .bl, .br, .ch, .co, .cz, .de, .ec, .fi, .fr, .gb, .gf, .gl, .hr, .hu, .ie, .il, .im, .je, .li, .lu, .mf, .nc, .nf, .nz, .pm, .re, .si, .uy, .wf
{ fill: #0066ff; }

/* Recognition of foreign marriages */
.aw, .cw, .sx, .mx
{ fill: #7fbcff; }

/* Legal but no recognition */
.ai, .al, .am, .as, .az, .ba, .bg, .bf, .by, .bj, .bm, .bo, .bs, .cd, .cg, .cf, .ci, .cl, .cn, .cr, .cu, .cv, .cy, .dj, .do, .ee, .fk, .fj, .fm, .fo, .ga, .ge, .gg, .gi, .gq, .gr, .gs, .gt, .gu, .gw, .hn, .ht, .id, .in, .iq, .it, .jo, .jp, .kg, .kh, .kp, .kr, .ky, .kz, .la, .lk, .lt, .lv, .mc, .md, .me, .mg, .mh, .mk, .ml, .mn, .mp, .mt, .ms, .mz, .ne, .ni, .np, .pa, .pe, .pf, .ph, .pl, .pn, .pr, .py, .ro, .rs, .ru, .rw, .sh, .sk, .sm, .sr, .st, .sv, .tc, .td, .th, .tj, .tk, .tl, .tr, .tw, .ua, .us, .va, .ve, .vg, .vi, .vn, .vu, .xk, .ps_west_bank
{ fill: #cccccc; }

/* Illegal, minimal penalty */
.bt, .lb, .lr
{ fill: #f9dc36; }

/* Illegal, large penalty */
.ag, .ao, .bh, .bi, .bn, .bw, .bz, .cm, .ck, .dm, .dz, .eg, .eh, .er, .et, .gd, .gh, .gm, .gn, .jm, .ke, .ki, .km, .kn, .kw, .lc, .ls, .ly, .ma, .mu, .mv, .mw, .my, .na, .ng, .nr, .nu, .om, .pg, .pw, .qa, .sb, .sc, .sg, .sn, .so, .ss, .sy, .sz, .tg, .tm, .tn, .to, .tt, .tv, .uz, .vc, .ws, .zm, .zw, .xc, .ps_gaza_strip
{ fill: #ec8028; }

/* Illegal, life imprisonment */
.bb, .bd, .gy, .mm, .pk, .sl, .tz, .ug
{ fill: #e73e21; }

/* Illegal, death penalty */
.ae, .af, .ir, .mr, .sa, .sd, .ye
{ fill: #8c201f; }

/* SUB-NATIONAL UNITS */

/* Same-sex marriage */
.br_al, .mx_dif, .us_ct, .us_dc, .us_ia, .us_ma, .us_md, .us_nh, .us_ny, .us_vt, .us_wa
{ fill: #002255; }

/* Civil unions etc. */
.mx_coa, .uk_je, .us_ca, .us_co, .us_de, .us_hi, .us_il, .us_me, .us_nj, .us_nv, .us_or, .us_ri, .us_wi, .ve_l
{ fill: #0066ff; }

/* Recognition of foreign marriages */
.bq
{ fill: #7fbcff; }

/* Illegal, large penalty */
.id_ac
{ fill: #ec8028; }

/* Illegal, death penalty */
.ng_sharia, .so_shabaab
{ fill: #8c201f; }

</style>
  <path
     inkscape:connector-curvature="0"
     style="fill:#ffd520;fill-rule:evenodd;stroke:none;fill-opacity:1"
     d="M 420.89172,828.33041 56.370297,463.80952 c -12.1503,-12.11938 -12.1503,-31.79949 0,-43.9499 L 420.89172,55.338228 c 12.11493,-12.114868 31.83535,-12.114868 43.9507,0 L 829.36331,419.85962 c 12.14761,12.15041 12.14761,31.83052 0,43.9499 L 464.84242,828.33041 c -12.15164,12.15164 -31.80433,12.15164 -43.9507,0 z"
     id="path11" />
  <path
     inkscape:connector-curvature="0"
     style="fill:#000000;fill-rule:evenodd;stroke:none"
     d="m 425.4746,823.80604 c 9.62213,9.62374 25.15681,9.62374 34.77932,0 L 824.81513,459.24483 c 9.59552,-9.59352 9.62375,-25.17978 0,-34.80636 L 460.28215,59.905449 c -9.59833,-9.595076 -25.23661,-9.595076 -34.83497,0 L 60.917797,424.43847 c -9.62652,9.62658 -9.59503,25.21284 0,34.80636 L 425.4746,823.80604 z"
     id="path13" />
  <path
     inkscape:connector-curvature="0"
     style="fill:#ffd520;fill-rule:evenodd;stroke:none;fill-opacity:1"
     d="M 433.51823,815.732 68.989167,451.17927 c -5.12236,-5.1203 -5.14598,-13.49985 0,-18.65363 L 433.54203,67.968911 c 5.14207,-5.122354 13.52846,-5.122354 18.64595,0 L 816.74071,432.52564 c 5.14449,5.15378 5.14449,13.53333 0,18.65363 L 452.18798,815.732 c -5.14126,5.15658 -13.50388,5.15658 -18.64595,0 l -0.0226,0 z"
     id="path15-7" />
  <path
     inkscape:connector-curvature="0"
     style="fill:#000000;fill-rule:evenodd;stroke:none"
     d="m 266.02026,374.96301 117.4556,29.27762 -5.09852,20.40662 c -0.17353,0.83054 0,1.68888 0.46042,2.43314 0.48462,0.74425 1.28774,1.31515 2.20094,1.46071 l 15.94185,4.03173 c 0.77571,0.11805 1.60666,-0.0587 2.26422,-0.45681 0.71646,-0.43301 1.28735,-1.14582 1.5119,-1.97636 l 4.98041,-20.11549 19.78087,4.8941 c 1.02728,0.19675 2.08644,-0.0323 2.91736,-0.63379 0.68501,-0.45678 1.23252,-1.14582 1.51593,-1.97271 l 3.77976,-15.65441 c 0.0548,-0.88578 -0.20094,-1.80702 -0.71281,-2.54724 -0.63378,-0.91359 -1.57882,-1.51593 -2.63797,-1.71671 l 8.50453,-35.86428 -4.92555,-7.12246 -1.94491,-49.66044 c -11.59122,-6.06735 -23.52515,-11.41786 -35.80138,-15.96928 -11.3352,-4.17768 -22.92642,-7.75665 -34.66321,-10.55991 l -15.59957,-3.92126 c -11.41786,-2.88995 -22.95023,-5.12272 -34.60032,-6.6697 -12.96524,-1.74453 -26.01353,-2.6303 -39.09287,-2.68916 l -25.01326,42.90407 -7.70141,4.00391 -9.33104,35.66348 c -1.03172,-0.34229 -2.14206,-0.25964 -3.14596,0.256 -0.80312,0.40156 -1.4607,1.08655 -1.83081,1.91749 l -4.03576,15.59917 c -0.0867,0.85836 0.0553,1.71671 0.45276,2.42952 0.43341,0.97649 1.29136,1.63366 2.26422,1.94894 l 19.78048,4.94896 -5.09853,20.12318 c -0.14192,0.83092 0.0274,1.74413 0.46042,2.45694 0.37012,0.69304 1.02769,1.17323 1.77558,1.43326 l 15.96969,3.95271 c 0.85835,0.2561 1.8308,0.13805 2.62989,-0.25964 0.74426,-0.42937 1.31515,-1.1184 1.54335,-1.94894 l 5.0437,-20.40298 z"
     id="path17" />
  <path
     inkscape:connector-curvature="0"
     style="fill:#000000;fill-rule:evenodd;stroke:none"
     d="m 156.93532,509.70788 77.92973,19.40068 63.35019,-40.8253 c 3.77572,-2.47145 6.65397,-6.09598 8.19328,-10.34946 1.27161,-3.50357 1.58286,-7.32162 0.86239,-11.02275 -0.90956,-2.97945 -2.42549,-5.76134 -4.46877,-8.11587 -2.23237,-2.62063 -5.06748,-4.68084 -8.23683,-6.05163 l -37.72652,-15.37138 c -1.82314,-0.88979 -3.33908,-2.42507 -4.1301,-4.2716 -0.86642,-1.92153 -0.96076,-4.10672 -0.33867,-6.12259 l 5.23642,-20.91865 -21.78062,-5.42952 -8.88634,35.71104 c -0.98455,3.504 -0.66967,7.22851 0.91318,10.49621 1.46473,2.99558 3.89022,5.4509 6.91402,6.91442 l 25.02495,15.46572 c 0.74789,0.64508 1.1301,1.65301 0.98415,2.63675 -0.16933,1.06438 -0.88577,1.97152 -1.87395,2.33034 l -101.96651,35.52359 z"
     id="path19" />
  <path
     inkscape:connector-curvature="0"
     style="fill:#000000;fill-rule:evenodd;stroke:none"
     d="m 297.43147,544.83235 77.92975,19.40069 63.3542,-40.82531 c 3.7717,-2.47145 6.64993,-6.09598 8.18925,-10.34945 1.27203,-3.50358 1.58608,-7.32566 0.8624,-11.02276 -0.90956,-2.97945 -2.4251,-5.76134 -4.46474,-8.11587 -2.23238,-2.62063 -5.06708,-4.68084 -8.23682,-6.05163 l -37.73055,-15.37299 c -1.82277,-0.88698 -3.3387,-2.42307 -4.12608,-4.2696 -0.87004,-1.92717 -0.96481,-4.11237 -0.33866,-6.12823 l 5.23641,-20.91379 -21.78467,-5.42912 -8.88633,35.70862 c -0.98052,3.5076 -0.66927,7.22889 0.91762,10.49862 1.46069,2.99558 3.88983,5.4509 6.91362,6.91442 l 25.02496,15.46572 c 0.74426,0.64911 1.13008,1.65704 0.98455,2.63676 -0.16934,1.06437 -0.88982,1.97151 -1.87437,2.33034 l -101.97054,35.52358 z"
     id="path21" />
  <path
     inkscape:connector-curvature="0"
     style="fill:#ffd520;fill-rule:evenodd;stroke:none;fill-opacity:1"
     d="M 413.30464,343.13854 268.16997,306.9594 283.25349,268.21285 c 0.34269,-0.72047 0.88617,-1.20871 1.60261,-1.51996 0.57089,-0.25964 1.25992,-0.31893 1.88967,-0.17294 l 129.13354,32.19861 c 0.63014,0.16933 1.20506,0.51566 1.60259,1.02769 0.46085,0.62975 0.74791,1.31878 0.68501,2.09448 l -4.86227,41.29783 z"
     id="path23" />
  <path
     inkscape:connector-curvature="0"
     style="fill:#000000;fill-rule:evenodd;stroke:none"
     d="m 539.94654,555.4358 0,-305.08634 -61.98383,0 0,303.42124 c -11.81701,9.00688 -19.45311,23.21873 -19.45311,39.2489 0,27.23434 22.1463,49.38064 49.38064,49.38064 27.23435,0 49.38065,-22.1463 49.38065,-49.38064 0,-6.26935 -1.20146,-12.23631 -3.31006,-17.73962 -2.98348,-7.75705 -7.84978,-14.56261 -14.01429,-19.84418 z"
     id="path25" />
  <path
     inkscape:connector-curvature="0"
     style="fill:#c0111e;fill-rule:evenodd;stroke:none;fill-opacity:1"
     d="m 535.03589,443.30569 0,112.10992 0,2.16504 1.64091,1.42723 c 5.58395,4.7897 10.00676,10.95421 12.6677,17.93314 1.90701,4.99935 2.96736,10.40187 2.96736,16.05435 0,24.58953 -19.98933,44.60708 -44.59095,44.60708 -24.60968,0 -44.61916,-20.01755 -44.61916,-44.60708 0,-14.47794 6.88619,-27.33916 17.57431,-35.49132 l 1.88282,-1.41514 0,-2.33841 0,-110.44481 52.47701,0 z"
     id="path27" />
  <path
     inkscape:connector-curvature="0"
     style="fill:#000000;fill-rule:evenodd;stroke:none"
     d="m 586.38402,483.24766 1.01599,1.06841 c 4.51957,4.76147 13.49017,8.77304 21.84795,8.77304 8.86578,0 18.58628,-4.6889 24.50486,-12.39757 3.65275,-4.76147 9.08349,-16.92118 9.08349,-37.87005 0,-20.49329 -5.16464,-32.84451 -8.45454,-37.43543 -6.06372,-8.4098 -15.15124,-13.09506 -25.30314,-13.09506 -8.67225,0 -16.94133,3.6971 -22.59382,10.05191 -4.99935,5.60653 -10.85342,17.11105 -10.85342,39.6045 0,25.1572 5.7049,35.64776 10.75263,41.30025 z"
     id="path29" />
  <path
     inkscape:connector-curvature="0"
     style="fill:#000000;fill-rule:evenodd;stroke:none"
     d="m 731.07075,467.88273 c -0.36286,0.67733 -0.77007,1.35063 -1.20952,1.97958 l -0.91521,1.30225 c -3.35843,4.7897 -8.57952,7.44661 -13.85302,7.44661 -8.81337,0 -20.44088,-5.94681 -20.44088,-37.14395 0,-7.51634 3.16894,-34.02578 20.32396,-34.02578 7.51917,0 14.3328,5.38597 15.94952,11.47711 l 14.01833,-4.6381 c -1.23371,-5.74844 -9.59552,-21.65482 -29.24214,-21.65482 -11.76863,0 -21.79957,5.85085 -27.84314,16.43415 -4.99934,8.74843 -8.21667,20.73316 -8.21667,31.75349 0,0.29157 0,0.57896 0,0.89385 0,22.0189 6.24112,34.77932 10.87358,40.52454 5.24529,6.57575 14.77227,11.28482 24.9161,11.28482 6.09598,0 13.49017,-2.39082 18.00974,-5.53154 4.42281,-3.06815 9.30524,-9.3012 11.26063,-14.45375 l -13.63128,-5.64846 z"
     id="path31" />
  <path
     inkscape:connector-curvature="0"
     style="fill:#ffffff;fill-rule:evenodd;stroke:none"
     d="m 482.55888,442.65216 0,-187.58194 52.47701,0 0,187.58194 -52.47701,0 z"
     id="path33" />
  <path
     inkscape:connector-curvature="0"
     style="fill:#ffd520;fill-rule:evenodd;stroke:none;fill-opacity:1"
     d="m 596.20128,471.64837 -0.67733,-1.16114 c -1.64495,-2.80205 -5.05176,-12.32097 -5.05176,-27.78789 0,-21.46171 5.19287,-28.08019 5.96696,-29.14338 2.80609,-3.88981 7.83366,-6.50034 12.86122,-6.50034 7.87801,0 16.48172,4.25225 18.50968,27.91125 l 0.38302,7.8272 c -0.77006,22.76638 -5.28964,28.47128 -7.68448,30.78953 -3.01977,2.923 -7.2934,4.66471 -11.54688,4.66471 -5.1969,0 -10.30107,-2.80205 -12.76043,-6.59994 z"
     id="path35" />
  <path
     inkscape:connector-curvature="0"
     style="fill:#000000;fill-rule:evenodd;stroke:none"
     d="m 653.6091,364.55308 c -5.77344,0 -10.46234,4.68529 -10.46234,10.46115 0,5.77989 4.6889,10.46514 10.46234,10.46514 5.7815,0 10.46637,-4.68525 10.46637,-10.46514 0,-5.77586 -4.68487,-10.46115 -10.46637,-10.46115 z"
     id="path37" />
  <path
     inkscape:connector-curvature="0"
     style="fill:#ffd520;fill-rule:evenodd;stroke:none;fill-opacity:1"
     d="m 653.6091,370.73453 c 2.36662,0 4.28573,1.91749 4.28573,4.27966 0,2.3626 -1.91911,4.28373 -4.28573,4.28373 -2.3626,0 -4.27767,-1.92113 -4.27767,-4.28373 0,-2.36217 1.91507,-4.27966 4.27767,-4.27966 z"
     id="path39" />
</svg>
